<svg xmlns="http://www.w3.org/2000/svg" viewBox="0 0 32 32" id="furniture">
  <g opacity="0">
    <g>
      <path d="M28.634,11.492h-4.12c-0.785,0-1.451,0.612-1.516,1.395l-0.409,7.86H9.507l-0.505-7.86c-0.064-0.782-0.73-1.395-1.516-1.395H3.365c-0.839,0-1.521,0.682-1.521,1.521v14.055h28.311V13.013C30.155,12.174,29.473,11.492,28.634,11.492z"></path>
      <g>
        <path d="M11.037,16.037c-0.302,0-0.581,0.088-0.824,0.232l0.231,3.6H21.64l0.192-3.683c-0.194-0.094-0.411-0.149-0.645-0.149H11.037z"></path>
        <path d="M25.818,2.845h-19.7c-1.227,0-1.632,0.847-1.632,1.382v6.387h3c1.302,0,2.405,1.016,2.514,2.33l0.145,2.26c0.28-0.102,0.578-0.167,0.892-0.167h10.149c0.245,0,0.476,0.046,0.699,0.112l0.116-2.222     c0.107-1.297,1.211-2.312,2.513-2.312h2.938V4.227C27.451,3.749,27.026,2.845,25.818,2.845z"></path>
      </g>
      <g>
        <polygon points="6.364,30.383 8.808,30.383 9.021,28.067 6.151,28.067"></polygon>
        <polygon points="23.206,30.383 25.649,30.383 25.863,28.067 22.993,28.067"></polygon>
      </g>
    </g>
  </g>
  <g opacity="1">
    <g>
      <g>
        <path d="M26.982,12.357V4.424c0-0.564-0.507-1.021-1.132-1.021H6.15c-0.625,0-1.132,0.457-1.132,1.021v7.985l0.166,11.304h21.799V12.357z"></path>
        <path d="M27.482,24.213H4.69L4.518,12.417V4.424c0-0.839,0.732-1.521,1.632-1.521h19.7c0.9,0,1.633,0.682,1.633,1.521V24.213z M5.676,23.213h20.807V4.424c0-0.287-0.284-0.521-0.633-0.521h-19.7c-0.349,0-0.632,0.234-0.632,0.521v7.985L5.676,23.213z"></path>
      </g>
      <g >
        <path d="M23.199,20.051v-2.33c0-1.173-0.951-2.125-2.125-2.125H10.925c-1.173,0-2.125,0.951-2.125,2.125v2.33l0.126,1.105H22.85L23.199,20.051z"></path>
      </g>
      <g>
        <path d="M23.496,12.987l-0.432,8.32H9.038l-0.534-8.32c-0.044-0.529-0.486-0.936-1.017-0.936H3.366c-0.564,0-1.021,0.457-1.021,1.021v6.324v5.222v2.008h27.31v-2.008v-5.222v-6.324c0-0.564-0.457-1.021-1.021-1.021h-4.121C23.982,12.051,23.54,12.458,23.496,12.987z"></path>
        <path d="M30.155,27.126H1.845V13.072c0-0.839,0.682-1.521,1.521-1.521h4.121c0.785,0,1.45,0.613,1.515,1.395l0.505,7.861h13.082l0.409-7.861c0.064-0.782,0.73-1.395,1.516-1.395h4.12c0.839,0,1.521,0.682,1.521,1.521V27.126z M2.845,26.126h26.311V13.072c0-0.287-0.234-0.521-0.521-0.521h-4.12c-0.267,0-0.493,0.207-0.519,0.471l-0.457,8.785H8.57l-0.565-8.788c-0.021-0.258-0.25-0.468-0.518-0.468H3.366c-0.287,0-0.521,0.234-0.521,0.521V26.126z"></path>
      </g>
      <g>
        <polygon points="8.37,29.942 6.839,29.942 6.533,26.626 8.676,26.626"></polygon>
        <path d="M8.826,30.442H6.383l-0.399-4.316h3.24L8.826,30.442z M7.295,29.442h0.618l0.214-2.316H7.081L7.295,29.442z"></path>
      </g>
      <g>
        <polygon points="23.681,29.942 25.211,29.942 25.518,26.626 23.375,26.626"></polygon>
        <path d="M25.667,30.442h-2.442l-0.397-4.316h3.239L25.667,30.442z M24.137,29.442h0.618l0.214-2.316h-1.046L24.137,29.442z"></path>
      </g>
      <g>
        <path d="M23.622,20.067l-0.838-0.028l-0.087-2.315c0-0.921-0.652-1.628-1.518-1.628H11.03c-0.896,0-1.625,0.729-1.625,1.625l0.046,2.32L8.74,20.055L8.405,17.73c0-1.457,1.177-2.634,2.625-2.634h10.15c1.412,0,2.518,1.162,2.518,2.645L23.622,20.067z"></path>
      </g>
    </g>
  </g>
</svg>